# xmcd CD database file
#
# Track frame offsets:
#	187
#	36052
#	51295
#
# Disc length: 849 seconds
#
# Revision: 0
# Processed by: cddbd v1.5.1PL0 Copyright (c) Steve Scherf et al.
# Submitted via: CDex 1.51
#
DISCID=1f034f03
DTITLE=Falcom - Falcom Special Box '89 [Disc2] SYMPHONY
DYEAR=1988
DGENRE=Game
TTITLE0=ソーサリアン組曲
TTITLE1=エンディング・テーマ
TTITLE2=FIRST STEP TOWARDS WARS
EXTD=YEAR: 1988
EXTT0=
EXTT1=
EXTT2=
PLAYORDER=
